<?xml version="1.0" encoding="UTF-8" standalone="no"?>
<svg
   xmlns:dc="http://purl.org/dc/elements/1.1/"
   xmlns:cc="http://creativecommons.org/ns#"
   xmlns:rdf="http://www.w3.org/1999/02/22-rdf-syntax-ns#"
   xmlns:svg="http://www.w3.org/2000/svg"
   xmlns="http://www.w3.org/2000/svg"
   xmlns:sodipodi="http://sodipodi.sourceforge.net/DTD/sodipodi-0.dtd"
   xmlns:inkscape="http://www.inkscape.org/namespaces/inkscape"
   height="20"
   viewBox="0 0 20 20"
   width="20"
   id="svg2"
   version="1.1"
   inkscape:version="0.48.3.1 r9886"
   sodipodi:docname="customers.svg"
   style="fill:#ffffff">
  <metadata
     id="metadata12">
    <rdf:RDF>
      <cc:Work
         rdf:about="">
        <dc:format>image/svg+xml</dc:format>
        <dc:type
           rdf:resource="http://purl.org/dc/dcmitype/StillImage" />
      </cc:Work>
    </rdf:RDF>
  </metadata>
  <defs
     id="defs10" />
  <sodipodi:namedview
     pagecolor="#ffffff"
     bordercolor="#666666"
     borderopacity="1"
     objecttolerance="10"
     gridtolerance="10"
     guidetolerance="10"
     inkscape:pageopacity="0"
     inkscape:pageshadow="2"
     inkscape:window-width="1366"
     inkscape:window-height="722"
     id="namedview8"
     showgrid="false"
     inkscape:zoom="19.666667"
     inkscape:cx="5.5400647"
     inkscape:cy="11.260864"
     inkscape:window-x="0"
     inkscape:window-y="24"
     inkscape:window-maximized="1"
     inkscape:current-layer="svg2" />
  <path
     d="M 0,-4 H 24 V 20 H 0 z"
     id="path4"
     inkscape:connector-curvature="0"
     style="fill:none" />
  <path
     d="m 14.5,10.25 c 1.38,0 2.49,-1.12 2.49,-2.5 0,-1.3800004 -1.11,-2.5000004 -2.49,-2.5000004 -1.38,0 -2.5,1.12 -2.5,2.5000004 0,1.38 1.12,2.5 2.5,2.5 z M 7,9.25 c 1.66,0 2.9900004,-1.34 2.9900004,-3.0000004 0,-1.66 -1.3300004,-3 -2.9900004,-3 -1.66,0 -3,1.34 -3,3 C 4,7.91 5.34,9.25 7,9.25 z m 7.5,3 C 12.67,12.25 9,13.17 9,15 v 2.25 H 20 V 15 c 0,-1.83 -3.67,-2.75 -5.5,-2.75 z m -7.5,-1 c -2.33,0 -7,1.17 -7,3.5 v 2.5 H 7 V 15 C 7,14.15 7.33,12.66 9.37,11.53 8.5,11.35 7.66,11.25 7,11.25 z"
     id="path6"
     style="fill:#ffffff"
     inkscape:connector-curvature="0" />
</svg>
