<?xml version="1.0" encoding="utf-8"?>
<!-- Generator: Adobe Illustrator 16.0.0, SVG Export Plug-In . SVG Version: 6.00 Build 0)  -->
<!DOCTYPE svg PUBLIC "-//W3C//DTD SVG 1.1//EN" "http://www.w3.org/Graphics/SVG/1.1/DTD/svg11.dtd">
<svg version="1.1" id="Capa_1" xmlns="http://www.w3.org/2000/svg" xmlns:xlink="http://www.w3.org/1999/xlink" x="0px" y="0px"
	 width="59.599px" height="54.126px" viewBox="0 0 59.599 54.126" enable-background="new 0 0 59.599 54.126" xml:space="preserve">
<g>
	<path fill-rule="evenodd" clip-rule="evenodd" fill="#FFFFFF" d="M2.249,25.632c0-0.576,0-1.149,0-1.723
		c0.029-0.078,0.074-0.153,0.088-0.234c0.485-2.98,3.304-5.574,6.637-5.466c2.838,0.092,5.681,0.02,8.521,0.019
		c0.163,0,0.326-0.015,0.568-0.024c-0.177-0.441-0.305-0.818-0.476-1.175c-0.422-0.878-0.896-1.731-1.29-2.622
		c-1.323-2.994-1.464-6.082-0.53-9.195c0.427-1.424,1.295-2.581,2.664-3.28c1.427-0.729,2.957-0.98,4.541-0.923
		c0.604,0.021,1.075,0.359,1.459,0.816c0.719,0.858,1.227,1.838,1.5,2.914c0.354,1.389,0.61,2.801,0.947,4.193
		c0.299,1.233,0.769,2.396,1.615,3.375c0.854,0.986,1.703,1.975,2.542,2.973c1.604,1.905,3.182,3.835,4.812,5.718
		c0.674,0.78,1.444,1.484,2.559,1.604c0.122,0.014,0.244,0.083,0.355,0.144c0.816,0.447,1.213,1.138,1.213,2.069
		c-0.002,7.073-0.001,14.146-0.001,21.217c0,0.086-0.004,0.173-0.009,0.259c-0.063,1.05-0.772,1.909-1.817,2.041
		c-1.911,0.238-3.698,0.9-5.509,1.488c-2.397,0.779-4.77,1.633-7.251,2.142c-1.9,0.39-3.805,0.71-5.749,0.729
		c-1.491,0.015-2.984,0.02-4.475-0.001c-1.281-0.017-2.542-0.184-3.757-0.635c-1.517-0.567-2.71-1.517-3.536-2.92
		c-0.848-1.438-1.087-3.004-1.007-4.639c0.017-0.331-0.052-0.576-0.276-0.85c-0.405-0.495-0.791-1.026-1.062-1.601
		c-0.723-1.531-0.945-3.139-0.558-4.814c0.047-0.207-0.03-0.475-0.125-0.676c-0.233-0.489-0.567-0.937-0.76-1.438
		c-0.631-1.637-0.646-3.304-0.088-4.967c0.108-0.325,0.048-0.559-0.171-0.814c-0.57-0.675-0.985-1.44-1.219-2.297
		C2.479,26.571,2.366,26.1,2.249,25.632z"/>
	<path fill-rule="evenodd" clip-rule="evenodd" fill="#FFFFFF" d="M56.14,46.722c-0.087,0.161-0.174,0.321-0.258,0.483
		c-0.406,0.768-1.052,1.164-1.912,1.165c-3.213,0.009-6.428,0.016-9.64,0c-1.298-0.006-2.145-0.882-2.204-2.209
		c-0.01-0.229-0.002-0.459-0.002-0.688c0-6.814,0.004-13.628-0.002-20.44c-0.002-0.958,0.273-1.764,1.165-2.227
		c0.293-0.153,0.649-0.258,0.978-0.261c3.242-0.019,6.484-0.018,9.727-0.007c0.864,0.002,1.491,0.438,1.9,1.192
		c0.079,0.146,0.165,0.291,0.248,0.438C56.14,31.687,56.14,39.204,56.14,46.722z M49.695,44.078c1.181-0.007,2.13-0.956,2.136-2.135
		c0.005-1.195-1.014-2.215-2.188-2.188c-1.141,0.024-2.115,1.026-2.116,2.178C47.524,43.122,48.498,44.085,49.695,44.078z"/>
</g>
</svg>
