<?xml version="1.0" encoding="utf-8"?>
<!-- Generator: Adobe Illustrator 16.0.0, SVG Export Plug-In . SVG Version: 6.00 Build 0)  -->
<!DOCTYPE svg PUBLIC "-//W3C//DTD SVG 1.1//EN" "http://www.w3.org/Graphics/SVG/1.1/DTD/svg11.dtd">
<svg version="1.1" id="Capa_1" xmlns="http://www.w3.org/2000/svg" xmlns:xlink="http://www.w3.org/1999/xlink" x="0px" y="0px"
	 width="71px" height="75px" viewBox="0 0 71 75" enable-background="new 0 0 71 75" xml:space="preserve">
<g>
	<g>
		<polygon fill="#FFFFFF" points="9.853,19.848 9.853,65.987 12.168,65.987 12.168,25.055 46.332,25.055 46.332,65.987 
			48.648,65.987 48.648,19.848 		"/>
		<g>
			<path fill="#FFFFFF" d="M42.559,57.292H16.114c0,0-2.51-9.071,11.581-10.809C27.695,46.483,40.821,46.097,42.559,57.292z"/>
			<circle fill="#FFFFFF" cx="29.336" cy="37.315" r="6.465"/>
		</g>
		<polygon fill="#FFFFFF" points="49.806,19.848 63.124,30.85 63.124,71.199 49.806,65.987 		"/>
	</g>
	<path fill-rule="evenodd" clip-rule="evenodd" fill="#FFFFFF" d="M40.239,4.197c-0.344-0.055-0.678-0.195-0.995-0.195
		c-1.152,0-2.298,0-3.438,0c-4.589,0-9.179-0.013-13.771,0.017c-0.611,0.003-1.465,0.115-1.796,0.359
		c-3.186,2.35-6.287,4.738-9.396,7.121c-0.325,0.249-0.541,0.544-0.81,0.815c0,0.503,0,1.006,0,1.507
		c1.854,1.841,3.713,2.598,6.335,2.112c1.715-0.318,3.132-1.156,4.729-1.781c0.844,0.998,2.327,1.938,5.033,1.879
		c2.669-0.06,4.229-0.928,5.149-2.44c0.999,1.483,2.489,2.394,5.152,2.438c2.866,0.044,4.5-0.885,5.514-2.404
		c0.937,1.451,2.449,2.361,5.123,2.399c2.855,0.043,4.548-0.847,5.483-2.445c0.016,0.025,0.035-0.108,0.052-0.085l0,0L40.979,4.6
		L40.239,4.197z"/>
</g>
</svg>
