<?xml version="1.0" encoding="utf-8"?>
<!-- Generator: Adobe Illustrator 16.0.0, SVG Export Plug-In . SVG Version: 6.00 Build 0)  -->
<!DOCTYPE svg PUBLIC "-//W3C//DTD SVG 1.1//EN" "http://www.w3.org/Graphics/SVG/1.1/DTD/svg11.dtd">
<svg version="1.1" id="Capa_1" xmlns="http://www.w3.org/2000/svg" xmlns:xlink="http://www.w3.org/1999/xlink" x="0px" y="0px"
	 width="40.527px" height="65.823px" viewBox="0 0 40.527 65.823" enable-background="new 0 0 40.527 65.823" xml:space="preserve">
<path fill-rule="evenodd" clip-rule="evenodd" fill="#FFFFFF" d="M18.11,63.831c0-1.689-0.074-3.307,0.023-4.915
	c0.08-1.323-0.305-1.819-1.721-1.983c-3.07-0.358-5.999-1.293-8.379-3.408c-3.671-3.262-4.533-7.543-4.492-12.256
	c1.775,0,3.371,0,5.132,0c0.216,3.341,0.297,6.793,3.424,8.725c1.677,1.036,3.738,1.449,6.013,2.285c0-2.929,0-5.23,0-7.531
	c0-3.38-0.074-6.762,0.036-10.138c0.046-1.386-0.437-2.011-1.72-2.384c-3.082-0.898-6.065-2.078-8.334-4.466
	c-3.691-3.885-4.165-8.635-2.908-13.496c1.206-4.665,4.715-7.309,9.297-8.301c2.301-0.498,4.633-0.507,3.576-3.97
	c1.436,0,2.595,0,3.734,0c0.204,1.182,0.037,2.632,0.672,3.224c0.687,0.64,2.131,0.43,3.226,0.676
	c6.438,1.45,10.307,6.56,9.791,13.038c-1.587,0-3.188,0-5.063,0c-0.06-2.527-0.395-5.183-2.876-6.6
	c-1.563-0.892-3.401-1.303-5.399-2.033c0,6.335,0,12.124,0,17.818c2.553,0.899,5.179,1.565,7.567,2.72
	c5.423,2.621,7.749,7.229,7.197,13.592c-0.529,6.099-3.758,10.161-9.535,11.849c-1.665,0.486-3.396,0.742-5.289,1.144
	c0,2.052,0,4.15,0,6.411C20.695,63.831,19.498,63.831,18.11,63.831z M22.137,51.79c5.86,0.109,9.333-2.963,9.596-8.332
	c0.27-5.473-3.194-8.944-9.596-9.509C22.137,39.859,22.137,45.76,22.137,51.79z M17.98,27.027c0-5.479,0-10.83,0-16.176
	c-4.523-0.088-7.674,2.408-8.066,6.286C9.363,22.58,12.045,25.919,17.98,27.027z"/>
</svg>
