<?xml version="1.0" encoding="utf-8"?>
<!-- Generator: Adobe Illustrator 16.0.0, SVG Export Plug-In . SVG Version: 6.00 Build 0)  -->
<!DOCTYPE svg PUBLIC "-//W3C//DTD SVG 1.1//EN" "http://www.w3.org/Graphics/SVG/1.1/DTD/svg11.dtd">
<svg version="1.1" id="Capa_1" xmlns="http://www.w3.org/2000/svg" xmlns:xlink="http://www.w3.org/1999/xlink" x="0px" y="0px"
	 width="59.599px" height="54.126px" viewBox="0 0 59.599 54.126" enable-background="new 0 0 59.599 54.126" xml:space="preserve">
<g>
	<g>
		<path fill="#FFFFFF" d="M0,18.053h6.114l1.769,2.735h26.226c0,0,3.539,0.161,2.091,2.413c-1.447,2.252-6.436,11.423-6.436,11.423
			s-0.644,2.896-4.505,2.735s-12.549,0-12.549,0l-1.287,1.931c0,0-2.092,2.252,1.77,2.252s19.146,0,19.146,0v3.54H11.423
			c0,0-5.953-1.448-3.54-6.114c0,0,2.574-1.447,2.414-4.183c-0.161-2.735-6.758-13.354-6.758-13.354L0,20.949V18.053z"/>
		<circle fill="#FFFFFF" cx="11.342" cy="49.828" r="3.298"/>
		<circle fill="#FFFFFF" cx="29.281" cy="49.828" r="3.298"/>
	</g>
	<g>
		<circle fill="#FFFFFF" cx="47.735" cy="14.722" r="3.074"/>
		<path fill="#FFFFFF" d="M8.044,1.704v16.349h24.103c0,0,7.217-0.536,6.793,2.33c-0.425,2.865-8.49,17.192-8.49,17.192h27.593
			V1.704H8.044z M54.978,16.693c-1.761,4.231-4.19,8.185-6.331,12.258c-0.563,0.017-1.127,0.033-1.69,0.051
			c-2.146-3.944-4.545-7.775-6.356-11.867c-1.428-3.221-0.028-6.688,2.739-8.662c2.512-1.792,6.1-1.828,8.661-0.088
			C54.703,10.221,56.271,13.586,54.978,16.693z"/>
	</g>
</g>
</svg>
