<?xml version="1.0" encoding="utf-8"?>
<!-- Generator: Adobe Illustrator 16.0.0, SVG Export Plug-In . SVG Version: 6.00 Build 0)  -->
<!DOCTYPE svg PUBLIC "-//W3C//DTD SVG 1.1//EN" "http://www.w3.org/Graphics/SVG/1.1/DTD/svg11.dtd">
<svg version="1.1" id="Capa_1" xmlns="http://www.w3.org/2000/svg" xmlns:xlink="http://www.w3.org/1999/xlink" x="0px" y="0px"
	 width="65.156px" height="65.823px" viewBox="0 0 65.156 65.823" enable-background="new 0 0 65.156 65.823" xml:space="preserve">
<g>
	<g>
		<g>
			<g>
				<path fill="#FFFFFF" d="M29.151,63.894H6.317c0,0-2.167-7.833,10-9.333C16.317,54.561,27.651,54.227,29.151,63.894z"/>
				<circle fill="#FFFFFF" cx="17.734" cy="46.644" r="5.583"/>
			</g>
			<path fill="#FFFFFF" d="M3.961,19.395v14c0,0,34.782-0.143,35.782,32.429h20.666V19.395H3.961z M45.734,21.728
				c3.083,0,5.583,2.5,5.583,5.583s-2.5,5.583-5.583,5.583s-5.583-2.5-5.583-5.583S42.651,21.728,45.734,21.728z M34.317,44.561
				c0,0-2.167-7.833,10-9.333c0,0,11.334-0.334,12.834,9.333H34.317z"/>
		</g>
		<path fill-rule="evenodd" clip-rule="evenodd" fill="#FFFFFF" d="M57.457,0.543c-0.259-0.344-0.98-0.476-1.489-0.48
			c-4.411-0.037-8.818-0.021-13.227-0.021c-0.512,0-1.022,0-1.622,0c0-0.014,0-0.028,0-0.042H25.016c0,0.014,0,0.028,0,0.042
			c-1.558,0-3.064,0-4.574,0c-3.46,0-6.921-0.017-10.384,0.022C9.597,0.067,8.953,0.217,8.703,0.54
			c-2.401,3.111-4.74,6.274-7.084,9.431c-0.245,0.329-0.408,0.72-0.61,1.08c0,0.666,0,1.332,0,1.995
			c1.397,2.438,2.8,3.44,4.776,2.797c1.293-0.421,2.361-1.531,3.566-2.358c0.636,1.321,1.755,2.566,3.795,2.488
			c2.013-0.079,3.188-1.229,3.883-3.232c0.753,1.965,1.877,3.17,3.885,3.229c2.161,0.059,3.393-1.172,4.157-3.185
			c0.706,1.922,1.847,3.128,3.862,3.179c2.153,0.057,3.43-1.121,4.135-3.238c0.742,2.021,1.926,3.244,4.028,3.244
			c2.089-0.003,3.27-1.212,3.995-3.199c0.762,2.03,1.995,3.258,4.157,3.196c2.007-0.057,3.132-1.262,3.865-3.18
			c0.768,1.977,1.953,3.193,4.045,3.186c1.923-0.009,3.036-1.119,3.804-2.907c0.306,0.413,0.539,0.729,0.772,1.043
			c2.047,2.794,5.605,2.479,7.12-0.621c0.079-0.157,0.2-0.295,0.301-0.441c0-0.663,0-1.329,0-1.995
			C62.602,7.539,60.068,4.015,57.457,0.543z"/>
	</g>
</g>
</svg>
