<?xml version="1.0" encoding="utf-8"?>
<!-- Generator: Adobe Illustrator 16.0.0, SVG Export Plug-In . SVG Version: 6.00 Build 0)  -->
<!DOCTYPE svg PUBLIC "-//W3C//DTD SVG 1.1//EN" "http://www.w3.org/Graphics/SVG/1.1/DTD/svg11.dtd">
<svg version="1.1" id="Capa_1" xmlns="http://www.w3.org/2000/svg" xmlns:xlink="http://www.w3.org/1999/xlink" x="0px" y="0px"
	 width="65.156px" height="65.823px" viewBox="0 0 65.156 65.823" enable-background="new 0 0 65.156 65.823" xml:space="preserve">
<g>
	<path fill="#FFFFFF" d="M32.578,2.912c-16.567,0-30,13.433-30,30c0,16.569,13.433,30,30,30c16.569,0,30-13.431,30-30
		C62.578,16.345,49.147,2.912,32.578,2.912z M32.578,57.157c-13.389,0-24.243-10.856-24.243-24.245S19.189,8.669,32.578,8.669
		c13.392,0,24.245,10.854,24.245,24.243S45.97,57.157,32.578,57.157z"/>
	<polygon fill="#FFFFFF" points="45.215,47.376 33.269,32.747 33.269,13.915 30.144,13.915 30.144,33.915 30.189,33.915 
		42.794,49.353 	"/>
</g>
</svg>
