<?xml version="1.0" encoding="utf-8"?>
<!-- Generator: Adobe Illustrator 16.0.0, SVG Export Plug-In . SVG Version: 6.00 Build 0)  -->
<!DOCTYPE svg PUBLIC "-//W3C//DTD SVG 1.1//EN" "http://www.w3.org/Graphics/SVG/1.1/DTD/svg11.dtd">
<svg version="1.1" id="Capa_1" xmlns="http://www.w3.org/2000/svg" xmlns:xlink="http://www.w3.org/1999/xlink" x="0px" y="0px"
	 width="65.156px" height="65.823px" viewBox="0 0 65.156 65.823" enable-background="new 0 0 65.156 65.823" xml:space="preserve">
<g>
	<g>
		<path fill="#FFFFFF" d="M23.295,13.993c-12.811,0-23.196,10.386-23.196,23.195c0,12.812,10.386,23.196,23.196,23.196
			S46.49,50,46.49,37.188C46.49,24.379,36.105,13.993,23.295,13.993z M23.295,55.936c-10.353,0-18.745-8.395-18.745-18.747
			c0-10.352,8.393-18.744,18.745-18.744c10.354,0,18.746,8.393,18.746,18.744C42.041,47.541,33.648,55.936,23.295,55.936z"/>
		<polygon fill="#FFFFFF" points="33.065,48.372 23.828,37.062 23.828,22.501 21.412,22.501 21.412,37.964 21.447,37.964 
			31.193,49.9 		"/>
	</g>
	<g>
		<circle fill="#FFFFFF" cx="54.006" cy="12.554" r="3.681"/>
		<path fill="#FFFFFF" d="M21.412,0.302v10.825c0,0,26.894-0.11,27.667,25.073h15.979V0.302H21.412z M62.679,14.913
			c-2.108,5.069-5.018,9.804-7.583,14.682c-0.674,0.02-1.35,0.04-2.024,0.061c-2.569-4.724-5.442-9.312-7.612-14.213
			c-1.709-3.856-0.033-8.01,3.281-10.373c3.009-2.146,7.305-2.189,10.373-0.105C62.35,7.163,64.227,11.192,62.679,14.913z"/>
	</g>
</g>
</svg>
