<?xml version="1.0" encoding="utf-8"?>
<!-- Generator: Adobe Illustrator 16.0.0, SVG Export Plug-In . SVG Version: 6.00 Build 0)  -->
<!DOCTYPE svg PUBLIC "-//W3C//DTD SVG 1.1//EN" "http://www.w3.org/Graphics/SVG/1.1/DTD/svg11.dtd">
<svg version="1.1" id="Capa_1" xmlns="http://www.w3.org/2000/svg" xmlns:xlink="http://www.w3.org/1999/xlink" x="0px" y="0px"
	 width="40.527px" height="65.823px" viewBox="0 0 40.527 65.823" enable-background="new 0 0 40.527 65.823" xml:space="preserve">
<path fill-rule="evenodd" clip-rule="evenodd" fill="#FFFFFF" d="M31.482,5.478c-6.738-4.578-16.177-4.483-22.785,0.23
	C1.417,10.901-2.264,20.023,1.49,28.496c4.766,10.766,11.077,20.845,16.723,31.221c1.481-0.045,2.965-0.09,4.446-0.135
	c5.634-10.714,12.024-21.114,16.656-32.248C42.717,19.159,38.592,10.307,31.482,5.478z M20.264,30.236
	c-4.467,0-8.086-3.622-8.086-8.086c0-4.465,3.619-8.086,8.086-8.086c4.466,0,8.085,3.621,8.085,8.086
	C28.349,26.614,24.729,30.236,20.264,30.236z"/>
</svg>
